# xmcd
#
# Track frame offsets: 
#        150
#        21976
#        25992
#        53652
#        61681
#        68430
#        71541
#        76996
#        93854
#        100780
#        114195
#        117419
#        139230
#        153282
#        169531
#        187149
#        200549
#        213151
#        235227
#        238973
#        245245
#        260764
#
# Disc length: 3640 seconds
#
# Revision: 0
# Processed by: cddbd v1.5.2PL0 Copyright (c) Steve Scherf et al.
# Submitted via: ExactAudioCopyFreeDBPlugin 1.0
#
DISCID=300e3616
DTITLE=Les Talens Lyriques - Méhul - Uthal
DYEAR=2017
DGENRE=Opera
TTITLE0=Uthal - Ouverture 
TTITLE1=Scene 1 - Dialogue "Karine Deshayes, Ma fille"
TTITLE2=Scene 1 - Air et duo "Ombres de mes aieux"
TTITLE3=Scene 1 - Dialogue "Ma fille, il n'est pas loin le jour"
TTITLE4=Scene 1 - Morceau d'ensemble "Le grand Fingal, pour punir"
TTITLE5=Scene 2 - Choeur "Nous bravons les tempetes"
TTITLE6=Scene 2 - Dialogue "O combien votre aspect"
TTITLE7=Scene 2 - Morceau d'ensemble "Vers le palais"
TTITLE8=Scene 3 - Recitatif "Quoi, Ce combat affreux"
TTITLE9=Scene 3 - Hymne au sommeil "O de Selma"
TTITLE10=Scene 3 - Dialogue "Ou chercher un appui"
TTITLE11=Scene 4 - Recitatif et romance "Quoi, Je la cherche en vain"
TTITLE12=Scene 4 and 5 - Dialogue "Jean-Sebastien Bou"
TTITLE13=Scene 5 - Duo "Yann Beuron"
TTITLE14=Scene 6 - Dialogue "En croirai-je mes yeux"
TTITLE15=Scene 7 - Morceau d'ensemble "Braves vengeurs"
TTITLE16=Scene 8 - Recitatif "C'en est fait"
TTITLE17=Scene 8 - Chant des Bardes "Pres de Balva"
TTITLE18=Scene 9 - Dialogue "Mon pere"
TTITLE19=Scene 10 - Choeur "Rejouis-toi, Morven"
TTITLE20=Scene 10 - Dialogue "Enfin j'ai le pouvoir de venger"
TTITLE21=Scene 10 - Choeur final "Doux moment"
EXTD=
EXTT0=
EXTT1=
EXTT2=
EXTT3=
EXTT4=
EXTT5=
EXTT6=
EXTT7=
EXTT8=
EXTT9=
EXTT10=
EXTT11=
EXTT12=
EXTT13=
EXTT14=
EXTT15=
EXTT16=
EXTT17=
EXTT18=
EXTT19=
EXTT20=
EXTT21=
PLAYORDER=
